<svg width="28" height="28" viewBox="0 0 28 28" fill="none" xmlns="http://www.w3.org/2000/svg">
<g id="Layer_1" clip-path="url(#clip0_21_408)">
<g id="Group">
<path id="Vector" d="M14 0.21875C6.40937 0.21875 0.21875 6.40937 0.21875 14C0.21875 21.5906 6.40937 27.7812 14 27.7812C21.5906 27.7812 27.7812 21.5906 27.7812 14C27.7812 6.40937 21.5906 0.21875 14 0.21875ZM14 26.0312C7.37188 26.0312 1.96875 20.6281 1.96875 14C1.96875 7.37188 7.37188 1.96875 14 1.96875C20.6281 1.96875 26.0312 7.37188 26.0312 14C26.0312 20.6281 20.6281 26.0312 14 26.0312Z" fill="#F7F8F9"/>
<path id="Vector_2" d="M14.875 11.9219H13.125V20.6719H14.875V11.9219Z" fill="#F7F8F9"/>
<path id="Vector_3" d="M14.875 7.76562H13.125V9.51562H14.875V7.76562Z" fill="#F7F8F9"/>
</g>
</g>
<defs>
<clipPath id="clip0_21_408">
<rect width="28" height="28" fill="white"/>
</clipPath>
</defs>
</svg>
